<mxfile host="app.diagrams.net" modified="2023-11-26T15:58:31.338Z" agent="Mozilla/5.0 (Windows NT 10.0; Win64; x64) AppleWebKit/537.36 (KHTML, like Gecko) Chrome/119.0.0.0 Safari/537.36" etag="WjOsEUGSFHebivdaftp9" version="22.1.4" type="github">
  <diagram name="Страница — 1" id="l7LLKRYS1CDSjIgACpEa">
    <mxGraphModel dx="1105" dy="595" grid="1" gridSize="10" guides="1" tooltips="1" connect="1" arrows="1" fold="1" page="1" pageScale="1" pageWidth="827" pageHeight="1169" math="0" shadow="0">
      <root>
        <mxCell id="0" />
        <mxCell id="1" parent="0" />
        <mxCell id="WEp8lpsz-W-8RyHc5n8z-14" value="" style="edgeStyle=orthogonalEdgeStyle;rounded=0;orthogonalLoop=1;jettySize=auto;html=1;" edge="1" parent="1" source="WEp8lpsz-W-8RyHc5n8z-1" target="WEp8lpsz-W-8RyHc5n8z-2">
          <mxGeometry relative="1" as="geometry" />
        </mxCell>
        <mxCell id="WEp8lpsz-W-8RyHc5n8z-1" value="Beginning" style="ellipse;whiteSpace=wrap;html=1;" vertex="1" parent="1">
          <mxGeometry x="330" y="40" width="120" height="40" as="geometry" />
        </mxCell>
        <mxCell id="WEp8lpsz-W-8RyHc5n8z-15" value="" style="edgeStyle=orthogonalEdgeStyle;rounded=0;orthogonalLoop=1;jettySize=auto;html=1;" edge="1" parent="1" source="WEp8lpsz-W-8RyHc5n8z-2" target="WEp8lpsz-W-8RyHc5n8z-4">
          <mxGeometry relative="1" as="geometry" />
        </mxCell>
        <mxCell id="WEp8lpsz-W-8RyHc5n8z-2" value="Input N, K" style="shape=parallelogram;perimeter=parallelogramPerimeter;whiteSpace=wrap;html=1;fixedSize=1;" vertex="1" parent="1">
          <mxGeometry x="330" y="110" width="120" height="60" as="geometry" />
        </mxCell>
        <mxCell id="WEp8lpsz-W-8RyHc5n8z-19" value="" style="edgeStyle=orthogonalEdgeStyle;rounded=0;orthogonalLoop=1;jettySize=auto;html=1;" edge="1" parent="1" source="WEp8lpsz-W-8RyHc5n8z-4" target="WEp8lpsz-W-8RyHc5n8z-6">
          <mxGeometry relative="1" as="geometry" />
        </mxCell>
        <mxCell id="WEp8lpsz-W-8RyHc5n8z-4" value="for(int i=0; i&amp;lt;N; i++)" style="shape=hexagon;perimeter=hexagonPerimeter2;whiteSpace=wrap;html=1;fixedSize=1;" vertex="1" parent="1">
          <mxGeometry x="330" y="200" width="120" height="80" as="geometry" />
        </mxCell>
        <mxCell id="WEp8lpsz-W-8RyHc5n8z-5" value="Input a[i]" style="shape=parallelogram;perimeter=parallelogramPerimeter;whiteSpace=wrap;html=1;fixedSize=1;" vertex="1" parent="1">
          <mxGeometry x="460" y="210" width="120" height="60" as="geometry" />
        </mxCell>
        <mxCell id="WEp8lpsz-W-8RyHc5n8z-20" value="" style="edgeStyle=orthogonalEdgeStyle;rounded=0;orthogonalLoop=1;jettySize=auto;html=1;" edge="1" parent="1" source="WEp8lpsz-W-8RyHc5n8z-6" target="WEp8lpsz-W-8RyHc5n8z-7">
          <mxGeometry relative="1" as="geometry" />
        </mxCell>
        <mxCell id="WEp8lpsz-W-8RyHc5n8z-6" value="N_new=0" style="rounded=0;whiteSpace=wrap;html=1;" vertex="1" parent="1">
          <mxGeometry x="330" y="310" width="120" height="60" as="geometry" />
        </mxCell>
        <mxCell id="WEp8lpsz-W-8RyHc5n8z-21" value="" style="edgeStyle=orthogonalEdgeStyle;rounded=0;orthogonalLoop=1;jettySize=auto;html=1;" edge="1" parent="1" source="WEp8lpsz-W-8RyHc5n8z-7" target="WEp8lpsz-W-8RyHc5n8z-8">
          <mxGeometry relative="1" as="geometry" />
        </mxCell>
        <mxCell id="WEp8lpsz-W-8RyHc5n8z-7" value="for(int i=0; i&amp;lt;N; i++)" style="shape=hexagon;perimeter=hexagonPerimeter2;whiteSpace=wrap;html=1;fixedSize=1;" vertex="1" parent="1">
          <mxGeometry x="330" y="400" width="120" height="80" as="geometry" />
        </mxCell>
        <mxCell id="WEp8lpsz-W-8RyHc5n8z-22" value="" style="edgeStyle=orthogonalEdgeStyle;rounded=0;orthogonalLoop=1;jettySize=auto;html=1;" edge="1" parent="1" source="WEp8lpsz-W-8RyHc5n8z-8" target="WEp8lpsz-W-8RyHc5n8z-9">
          <mxGeometry relative="1" as="geometry" />
        </mxCell>
        <mxCell id="WEp8lpsz-W-8RyHc5n8z-8" value="isDuplicate=false" style="rounded=0;whiteSpace=wrap;html=1;" vertex="1" parent="1">
          <mxGeometry x="330" y="510" width="120" height="60" as="geometry" />
        </mxCell>
        <mxCell id="WEp8lpsz-W-8RyHc5n8z-23" value="" style="edgeStyle=orthogonalEdgeStyle;rounded=0;orthogonalLoop=1;jettySize=auto;html=1;" edge="1" parent="1" source="WEp8lpsz-W-8RyHc5n8z-9" target="WEp8lpsz-W-8RyHc5n8z-10">
          <mxGeometry relative="1" as="geometry" />
        </mxCell>
        <mxCell id="WEp8lpsz-W-8RyHc5n8z-9" value="for(int j=0; j&amp;lt;N_new; j++)" style="shape=hexagon;perimeter=hexagonPerimeter2;whiteSpace=wrap;html=1;fixedSize=1;" vertex="1" parent="1">
          <mxGeometry x="330" y="600" width="120" height="80" as="geometry" />
        </mxCell>
        <mxCell id="WEp8lpsz-W-8RyHc5n8z-10" value="if(a[i]=&lt;br&gt;a_new[j]" style="rhombus;whiteSpace=wrap;html=1;" vertex="1" parent="1">
          <mxGeometry x="350" y="700" width="80" height="80" as="geometry" />
        </mxCell>
        <mxCell id="WEp8lpsz-W-8RyHc5n8z-11" value="isDuplicate=true" style="rounded=0;whiteSpace=wrap;html=1;" vertex="1" parent="1">
          <mxGeometry x="330" y="800" width="120" height="60" as="geometry" />
        </mxCell>
        <mxCell id="WEp8lpsz-W-8RyHc5n8z-34" value="" style="edgeStyle=orthogonalEdgeStyle;rounded=0;orthogonalLoop=1;jettySize=auto;html=1;" edge="1" parent="1" source="WEp8lpsz-W-8RyHc5n8z-12" target="WEp8lpsz-W-8RyHc5n8z-13">
          <mxGeometry relative="1" as="geometry" />
        </mxCell>
        <mxCell id="WEp8lpsz-W-8RyHc5n8z-12" value="if(isDuplicate=&lt;br&gt;false" style="rhombus;whiteSpace=wrap;html=1;" vertex="1" parent="1">
          <mxGeometry x="350" y="880" width="80" height="80" as="geometry" />
        </mxCell>
        <mxCell id="WEp8lpsz-W-8RyHc5n8z-13" value="a_new[N_new]=a[i]&lt;br&gt;N_new=N_new+1" style="rounded=0;whiteSpace=wrap;html=1;" vertex="1" parent="1">
          <mxGeometry x="330" y="980" width="120" height="60" as="geometry" />
        </mxCell>
        <mxCell id="WEp8lpsz-W-8RyHc5n8z-16" value="" style="endArrow=classic;html=1;rounded=0;entryX=0;entryY=0.5;entryDx=0;entryDy=0;exitX=1;exitY=0.5;exitDx=0;exitDy=0;" edge="1" parent="1" source="WEp8lpsz-W-8RyHc5n8z-4" target="WEp8lpsz-W-8RyHc5n8z-5">
          <mxGeometry width="50" height="50" relative="1" as="geometry">
            <mxPoint x="390" y="240" as="sourcePoint" />
            <mxPoint x="440" y="190" as="targetPoint" />
          </mxGeometry>
        </mxCell>
        <mxCell id="WEp8lpsz-W-8RyHc5n8z-17" value="" style="endArrow=none;html=1;rounded=0;entryX=0.5;entryY=1;entryDx=0;entryDy=0;" edge="1" parent="1" target="WEp8lpsz-W-8RyHc5n8z-5">
          <mxGeometry width="50" height="50" relative="1" as="geometry">
            <mxPoint x="520" y="340" as="sourcePoint" />
            <mxPoint x="440" y="190" as="targetPoint" />
          </mxGeometry>
        </mxCell>
        <mxCell id="WEp8lpsz-W-8RyHc5n8z-18" value="" style="endArrow=classic;html=1;rounded=0;entryX=1;entryY=0.5;entryDx=0;entryDy=0;" edge="1" parent="1" target="WEp8lpsz-W-8RyHc5n8z-6">
          <mxGeometry width="50" height="50" relative="1" as="geometry">
            <mxPoint x="520" y="340" as="sourcePoint" />
            <mxPoint x="440" y="190" as="targetPoint" />
          </mxGeometry>
        </mxCell>
        <mxCell id="WEp8lpsz-W-8RyHc5n8z-25" value="" style="endArrow=classic;html=1;rounded=0;entryX=0.5;entryY=0;entryDx=0;entryDy=0;exitX=0.5;exitY=1;exitDx=0;exitDy=0;" edge="1" parent="1" source="WEp8lpsz-W-8RyHc5n8z-10" target="WEp8lpsz-W-8RyHc5n8z-11">
          <mxGeometry width="50" height="50" relative="1" as="geometry">
            <mxPoint x="390" y="810" as="sourcePoint" />
            <mxPoint x="440" y="760" as="targetPoint" />
          </mxGeometry>
        </mxCell>
        <mxCell id="WEp8lpsz-W-8RyHc5n8z-26" value="" style="endArrow=none;html=1;rounded=0;exitX=1;exitY=0.5;exitDx=0;exitDy=0;" edge="1" parent="1" source="WEp8lpsz-W-8RyHc5n8z-11">
          <mxGeometry width="50" height="50" relative="1" as="geometry">
            <mxPoint x="390" y="810" as="sourcePoint" />
            <mxPoint x="500" y="830" as="targetPoint" />
          </mxGeometry>
        </mxCell>
        <mxCell id="WEp8lpsz-W-8RyHc5n8z-27" value="" style="endArrow=none;html=1;rounded=0;exitX=1;exitY=0.5;exitDx=0;exitDy=0;" edge="1" parent="1" source="WEp8lpsz-W-8RyHc5n8z-9">
          <mxGeometry width="50" height="50" relative="1" as="geometry">
            <mxPoint x="390" y="810" as="sourcePoint" />
            <mxPoint x="500" y="640" as="targetPoint" />
          </mxGeometry>
        </mxCell>
        <mxCell id="WEp8lpsz-W-8RyHc5n8z-28" value="" style="endArrow=none;html=1;rounded=0;" edge="1" parent="1">
          <mxGeometry width="50" height="50" relative="1" as="geometry">
            <mxPoint x="500" y="920" as="sourcePoint" />
            <mxPoint x="500" y="640" as="targetPoint" />
          </mxGeometry>
        </mxCell>
        <mxCell id="WEp8lpsz-W-8RyHc5n8z-29" value="" style="endArrow=classic;html=1;rounded=0;entryX=1;entryY=0.5;entryDx=0;entryDy=0;" edge="1" parent="1" target="WEp8lpsz-W-8RyHc5n8z-12">
          <mxGeometry width="50" height="50" relative="1" as="geometry">
            <mxPoint x="500" y="920" as="sourcePoint" />
            <mxPoint x="420" y="760" as="targetPoint" />
          </mxGeometry>
        </mxCell>
        <mxCell id="WEp8lpsz-W-8RyHc5n8z-30" value="" style="endArrow=none;html=1;rounded=0;entryX=0;entryY=0.5;entryDx=0;entryDy=0;" edge="1" parent="1" target="WEp8lpsz-W-8RyHc5n8z-10">
          <mxGeometry width="50" height="50" relative="1" as="geometry">
            <mxPoint x="290" y="740" as="sourcePoint" />
            <mxPoint x="420" y="760" as="targetPoint" />
          </mxGeometry>
        </mxCell>
        <mxCell id="WEp8lpsz-W-8RyHc5n8z-31" value="" style="endArrow=none;html=1;rounded=0;" edge="1" parent="1">
          <mxGeometry width="50" height="50" relative="1" as="geometry">
            <mxPoint x="290" y="740" as="sourcePoint" />
            <mxPoint x="290" y="640" as="targetPoint" />
          </mxGeometry>
        </mxCell>
        <mxCell id="WEp8lpsz-W-8RyHc5n8z-32" value="" style="endArrow=classic;html=1;rounded=0;entryX=0;entryY=0.5;entryDx=0;entryDy=0;" edge="1" parent="1" target="WEp8lpsz-W-8RyHc5n8z-9">
          <mxGeometry width="50" height="50" relative="1" as="geometry">
            <mxPoint x="290" y="640" as="sourcePoint" />
            <mxPoint x="420" y="760" as="targetPoint" />
          </mxGeometry>
        </mxCell>
        <mxCell id="WEp8lpsz-W-8RyHc5n8z-33" value="" style="endArrow=classic;html=1;rounded=0;entryX=0;entryY=0.5;entryDx=0;entryDy=0;" edge="1" parent="1" target="WEp8lpsz-W-8RyHc5n8z-7">
          <mxGeometry width="50" height="50" relative="1" as="geometry">
            <mxPoint x="270" y="440" as="sourcePoint" />
            <mxPoint x="420" y="810" as="targetPoint" />
          </mxGeometry>
        </mxCell>
        <mxCell id="WEp8lpsz-W-8RyHc5n8z-35" value="" style="endArrow=none;html=1;rounded=0;" edge="1" parent="1">
          <mxGeometry width="50" height="50" relative="1" as="geometry">
            <mxPoint x="270" y="1011.5999755859375" as="sourcePoint" />
            <mxPoint x="270" y="440" as="targetPoint" />
          </mxGeometry>
        </mxCell>
        <mxCell id="WEp8lpsz-W-8RyHc5n8z-36" value="" style="endArrow=none;html=1;rounded=0;entryX=0;entryY=0.5;entryDx=0;entryDy=0;" edge="1" parent="1" target="WEp8lpsz-W-8RyHc5n8z-13">
          <mxGeometry width="50" height="50" relative="1" as="geometry">
            <mxPoint x="270" y="1010" as="sourcePoint" />
            <mxPoint x="430" y="1030" as="targetPoint" />
          </mxGeometry>
        </mxCell>
        <mxCell id="WEp8lpsz-W-8RyHc5n8z-37" value="" style="endArrow=none;html=1;rounded=0;exitX=0;exitY=0.5;exitDx=0;exitDy=0;" edge="1" parent="1" source="WEp8lpsz-W-8RyHc5n8z-12">
          <mxGeometry width="50" height="50" relative="1" as="geometry">
            <mxPoint x="460" y="770" as="sourcePoint" />
            <mxPoint x="270" y="920" as="targetPoint" />
          </mxGeometry>
        </mxCell>
        <mxCell id="WEp8lpsz-W-8RyHc5n8z-38" value="" style="endArrow=none;html=1;rounded=0;entryX=1;entryY=0.5;entryDx=0;entryDy=0;" edge="1" parent="1" target="WEp8lpsz-W-8RyHc5n8z-7">
          <mxGeometry width="50" height="50" relative="1" as="geometry">
            <mxPoint x="520" y="440" as="sourcePoint" />
            <mxPoint x="510" y="480" as="targetPoint" />
          </mxGeometry>
        </mxCell>
        <mxCell id="WEp8lpsz-W-8RyHc5n8z-39" value="" style="endArrow=none;html=1;rounded=0;" edge="1" parent="1">
          <mxGeometry width="50" height="50" relative="1" as="geometry">
            <mxPoint x="520" y="1050" as="sourcePoint" />
            <mxPoint x="520" y="440" as="targetPoint" />
          </mxGeometry>
        </mxCell>
        <mxCell id="WEp8lpsz-W-8RyHc5n8z-40" value="for(int i=0; i&amp;lt;N_new-1; i++)" style="shape=hexagon;perimeter=hexagonPerimeter2;whiteSpace=wrap;html=1;fixedSize=1;" vertex="1" parent="1">
          <mxGeometry x="330" y="1070" width="120" height="80" as="geometry" />
        </mxCell>
        <mxCell id="WEp8lpsz-W-8RyHc5n8z-41" value="" style="endArrow=classic;html=1;rounded=0;entryX=0.5;entryY=0;entryDx=0;entryDy=0;" edge="1" parent="1" target="WEp8lpsz-W-8RyHc5n8z-40">
          <mxGeometry width="50" height="50" relative="1" as="geometry">
            <mxPoint x="390" y="1050" as="sourcePoint" />
            <mxPoint x="480" y="1080" as="targetPoint" />
          </mxGeometry>
        </mxCell>
        <mxCell id="WEp8lpsz-W-8RyHc5n8z-46" value="" style="edgeStyle=orthogonalEdgeStyle;rounded=0;orthogonalLoop=1;jettySize=auto;html=1;" edge="1" parent="1" source="WEp8lpsz-W-8RyHc5n8z-42" target="WEp8lpsz-W-8RyHc5n8z-43">
          <mxGeometry relative="1" as="geometry" />
        </mxCell>
        <mxCell id="WEp8lpsz-W-8RyHc5n8z-42" value="for(int j=0; j&amp;lt;N_new-1-i; j++)" style="shape=hexagon;perimeter=hexagonPerimeter2;whiteSpace=wrap;html=1;fixedSize=1;" vertex="1" parent="1">
          <mxGeometry x="330" y="1169" width="120" height="80" as="geometry" />
        </mxCell>
        <mxCell id="WEp8lpsz-W-8RyHc5n8z-47" value="" style="edgeStyle=orthogonalEdgeStyle;rounded=0;orthogonalLoop=1;jettySize=auto;html=1;" edge="1" parent="1" source="WEp8lpsz-W-8RyHc5n8z-43" target="WEp8lpsz-W-8RyHc5n8z-44">
          <mxGeometry relative="1" as="geometry" />
        </mxCell>
        <mxCell id="WEp8lpsz-W-8RyHc5n8z-43" value="if(a_new[j]&amp;gt;&lt;br&gt;a_new[j+1]" style="rhombus;whiteSpace=wrap;html=1;" vertex="1" parent="1">
          <mxGeometry x="350" y="1270" width="80" height="80" as="geometry" />
        </mxCell>
        <mxCell id="WEp8lpsz-W-8RyHc5n8z-44" value="temp=a_new[j]&lt;br&gt;a_new[j]=a_new[j+1]&lt;br&gt;a_new[j+1]=temp" style="rounded=0;whiteSpace=wrap;html=1;" vertex="1" parent="1">
          <mxGeometry x="330" y="1370" width="120" height="60" as="geometry" />
        </mxCell>
        <mxCell id="WEp8lpsz-W-8RyHc5n8z-45" value="" style="endArrow=classic;html=1;rounded=0;entryX=0.5;entryY=0;entryDx=0;entryDy=0;exitX=0.5;exitY=1;exitDx=0;exitDy=0;" edge="1" parent="1" source="WEp8lpsz-W-8RyHc5n8z-40" target="WEp8lpsz-W-8RyHc5n8z-42">
          <mxGeometry width="50" height="50" relative="1" as="geometry">
            <mxPoint x="460" y="1250" as="sourcePoint" />
            <mxPoint x="510" y="1200" as="targetPoint" />
          </mxGeometry>
        </mxCell>
        <mxCell id="WEp8lpsz-W-8RyHc5n8z-48" value="" style="endArrow=none;html=1;rounded=0;exitX=0;exitY=0.5;exitDx=0;exitDy=0;" edge="1" parent="1" source="WEp8lpsz-W-8RyHc5n8z-42">
          <mxGeometry width="50" height="50" relative="1" as="geometry">
            <mxPoint x="460" y="1250" as="sourcePoint" />
            <mxPoint x="290" y="1209" as="targetPoint" />
          </mxGeometry>
        </mxCell>
        <mxCell id="WEp8lpsz-W-8RyHc5n8z-49" value="" style="endArrow=none;html=1;rounded=0;" edge="1" parent="1">
          <mxGeometry width="50" height="50" relative="1" as="geometry">
            <mxPoint x="480" y="1310" as="sourcePoint" />
            <mxPoint x="430" y="1310" as="targetPoint" />
          </mxGeometry>
        </mxCell>
        <mxCell id="WEp8lpsz-W-8RyHc5n8z-50" value="" style="endArrow=none;html=1;rounded=0;" edge="1" parent="1">
          <mxGeometry width="50" height="50" relative="1" as="geometry">
            <mxPoint x="480" y="1400" as="sourcePoint" />
            <mxPoint x="450" y="1400" as="targetPoint" />
          </mxGeometry>
        </mxCell>
        <mxCell id="WEp8lpsz-W-8RyHc5n8z-51" value="" style="endArrow=none;html=1;rounded=0;" edge="1" parent="1">
          <mxGeometry width="50" height="50" relative="1" as="geometry">
            <mxPoint x="290" y="1210" as="sourcePoint" />
            <mxPoint x="290" y="1110" as="targetPoint" />
          </mxGeometry>
        </mxCell>
        <mxCell id="WEp8lpsz-W-8RyHc5n8z-52" value="" style="endArrow=classic;html=1;rounded=0;entryX=0;entryY=0.5;entryDx=0;entryDy=0;" edge="1" parent="1" target="WEp8lpsz-W-8RyHc5n8z-40">
          <mxGeometry width="50" height="50" relative="1" as="geometry">
            <mxPoint x="290" y="1110" as="sourcePoint" />
            <mxPoint x="510" y="1200" as="targetPoint" />
          </mxGeometry>
        </mxCell>
        <mxCell id="WEp8lpsz-W-8RyHc5n8z-53" value="" style="endArrow=none;html=1;rounded=0;" edge="1" parent="1">
          <mxGeometry width="50" height="50" relative="1" as="geometry">
            <mxPoint x="520" y="1050" as="sourcePoint" />
            <mxPoint x="390" y="1050" as="targetPoint" />
          </mxGeometry>
        </mxCell>
        <mxCell id="WEp8lpsz-W-8RyHc5n8z-54" value="" style="endArrow=none;html=1;rounded=0;exitX=1;exitY=0.5;exitDx=0;exitDy=0;" edge="1" parent="1" source="WEp8lpsz-W-8RyHc5n8z-40">
          <mxGeometry width="50" height="50" relative="1" as="geometry">
            <mxPoint x="460" y="1250" as="sourcePoint" />
            <mxPoint x="520" y="1110" as="targetPoint" />
          </mxGeometry>
        </mxCell>
        <mxCell id="WEp8lpsz-W-8RyHc5n8z-55" value="" style="endArrow=none;html=1;rounded=0;" edge="1" parent="1">
          <mxGeometry width="50" height="50" relative="1" as="geometry">
            <mxPoint x="520" y="1490" as="sourcePoint" />
            <mxPoint x="520" y="1110" as="targetPoint" />
          </mxGeometry>
        </mxCell>
        <mxCell id="WEp8lpsz-W-8RyHc5n8z-66" value="" style="edgeStyle=orthogonalEdgeStyle;rounded=0;orthogonalLoop=1;jettySize=auto;html=1;" edge="1" parent="1" source="WEp8lpsz-W-8RyHc5n8z-57" target="WEp8lpsz-W-8RyHc5n8z-60">
          <mxGeometry relative="1" as="geometry" />
        </mxCell>
        <mxCell id="WEp8lpsz-W-8RyHc5n8z-57" value="if(K!=0)" style="rhombus;whiteSpace=wrap;html=1;" vertex="1" parent="1">
          <mxGeometry x="350" y="1450" width="80" height="80" as="geometry" />
        </mxCell>
        <mxCell id="WEp8lpsz-W-8RyHc5n8z-58" value="" style="endArrow=classic;html=1;rounded=0;entryX=1;entryY=0.5;entryDx=0;entryDy=0;" edge="1" parent="1" target="WEp8lpsz-W-8RyHc5n8z-57">
          <mxGeometry width="50" height="50" relative="1" as="geometry">
            <mxPoint x="520" y="1490" as="sourcePoint" />
            <mxPoint x="510" y="1380" as="targetPoint" />
          </mxGeometry>
        </mxCell>
        <mxCell id="WEp8lpsz-W-8RyHc5n8z-59" value="K=K%N_new&lt;br&gt;temp[N_new]" style="rounded=0;whiteSpace=wrap;html=1;" vertex="1" parent="1">
          <mxGeometry x="330" y="1550" width="120" height="60" as="geometry" />
        </mxCell>
        <mxCell id="WEp8lpsz-W-8RyHc5n8z-60" value="for(int i=0; i&amp;lt;N_new; i++)" style="shape=hexagon;perimeter=hexagonPerimeter2;whiteSpace=wrap;html=1;fixedSize=1;" vertex="1" parent="1">
          <mxGeometry x="330" y="1630" width="120" height="80" as="geometry" />
        </mxCell>
        <mxCell id="WEp8lpsz-W-8RyHc5n8z-61" value="temp[i]=a_new[i]" style="rounded=0;whiteSpace=wrap;html=1;" vertex="1" parent="1">
          <mxGeometry x="330" y="1730" width="120" height="60" as="geometry" />
        </mxCell>
        <mxCell id="WEp8lpsz-W-8RyHc5n8z-62" value="for(int i=0; i&amp;lt;N_new-K; i++)" style="shape=hexagon;perimeter=hexagonPerimeter2;whiteSpace=wrap;html=1;fixedSize=1;" vertex="1" parent="1">
          <mxGeometry x="330" y="1810" width="120" height="80" as="geometry" />
        </mxCell>
        <mxCell id="WEp8lpsz-W-8RyHc5n8z-63" value="a_new[i]=temp[i+K]" style="rounded=0;whiteSpace=wrap;html=1;" vertex="1" parent="1">
          <mxGeometry x="330" y="1910" width="120" height="60" as="geometry" />
        </mxCell>
        <mxCell id="WEp8lpsz-W-8RyHc5n8z-64" value="for(int i=0; i&amp;lt;K; i++)" style="shape=hexagon;perimeter=hexagonPerimeter2;whiteSpace=wrap;html=1;fixedSize=1;" vertex="1" parent="1">
          <mxGeometry x="330" y="1990" width="120" height="80" as="geometry" />
        </mxCell>
        <mxCell id="WEp8lpsz-W-8RyHc5n8z-65" value="a_new[N_new-K+i]=temp[i]" style="rounded=0;whiteSpace=wrap;html=1;" vertex="1" parent="1">
          <mxGeometry x="330" y="2090" width="120" height="60" as="geometry" />
        </mxCell>
        <mxCell id="WEp8lpsz-W-8RyHc5n8z-69" value="" style="endArrow=classic;html=1;rounded=0;entryX=0.5;entryY=0;entryDx=0;entryDy=0;exitX=0.5;exitY=1;exitDx=0;exitDy=0;" edge="1" parent="1" source="WEp8lpsz-W-8RyHc5n8z-60" target="WEp8lpsz-W-8RyHc5n8z-61">
          <mxGeometry width="50" height="50" relative="1" as="geometry">
            <mxPoint x="460" y="1670" as="sourcePoint" />
            <mxPoint x="510" y="1620" as="targetPoint" />
          </mxGeometry>
        </mxCell>
        <mxCell id="WEp8lpsz-W-8RyHc5n8z-70" value="" style="endArrow=none;html=1;rounded=0;exitX=0;exitY=0.5;exitDx=0;exitDy=0;" edge="1" parent="1" source="WEp8lpsz-W-8RyHc5n8z-61">
          <mxGeometry width="50" height="50" relative="1" as="geometry">
            <mxPoint x="460" y="1670" as="sourcePoint" />
            <mxPoint x="290" y="1760" as="targetPoint" />
          </mxGeometry>
        </mxCell>
        <mxCell id="WEp8lpsz-W-8RyHc5n8z-71" value="" style="endArrow=none;html=1;rounded=0;" edge="1" parent="1">
          <mxGeometry width="50" height="50" relative="1" as="geometry">
            <mxPoint x="290" y="1760" as="sourcePoint" />
            <mxPoint x="290" y="1670" as="targetPoint" />
          </mxGeometry>
        </mxCell>
        <mxCell id="WEp8lpsz-W-8RyHc5n8z-72" value="" style="endArrow=classic;html=1;rounded=0;entryX=0;entryY=0.5;entryDx=0;entryDy=0;" edge="1" parent="1" target="WEp8lpsz-W-8RyHc5n8z-60">
          <mxGeometry width="50" height="50" relative="1" as="geometry">
            <mxPoint x="290" y="1670" as="sourcePoint" />
            <mxPoint x="510" y="1620" as="targetPoint" />
          </mxGeometry>
        </mxCell>
        <mxCell id="WEp8lpsz-W-8RyHc5n8z-73" value="" style="endArrow=none;html=1;rounded=0;exitX=0;exitY=0.5;exitDx=0;exitDy=0;" edge="1" parent="1">
          <mxGeometry width="50" height="50" relative="1" as="geometry">
            <mxPoint x="330" y="1940" as="sourcePoint" />
            <mxPoint x="290" y="1940" as="targetPoint" />
          </mxGeometry>
        </mxCell>
        <mxCell id="WEp8lpsz-W-8RyHc5n8z-74" value="" style="endArrow=none;html=1;rounded=0;" edge="1" parent="1">
          <mxGeometry width="50" height="50" relative="1" as="geometry">
            <mxPoint x="290" y="1940" as="sourcePoint" />
            <mxPoint x="290" y="1850" as="targetPoint" />
          </mxGeometry>
        </mxCell>
        <mxCell id="WEp8lpsz-W-8RyHc5n8z-75" value="" style="endArrow=classic;html=1;rounded=0;entryX=0;entryY=0.5;entryDx=0;entryDy=0;" edge="1" parent="1">
          <mxGeometry width="50" height="50" relative="1" as="geometry">
            <mxPoint x="290" y="1850" as="sourcePoint" />
            <mxPoint x="330" y="1850" as="targetPoint" />
          </mxGeometry>
        </mxCell>
        <mxCell id="WEp8lpsz-W-8RyHc5n8z-76" value="" style="endArrow=none;html=1;rounded=0;exitX=0;exitY=0.5;exitDx=0;exitDy=0;" edge="1" parent="1">
          <mxGeometry width="50" height="50" relative="1" as="geometry">
            <mxPoint x="330" y="2120" as="sourcePoint" />
            <mxPoint x="290" y="2120" as="targetPoint" />
          </mxGeometry>
        </mxCell>
        <mxCell id="WEp8lpsz-W-8RyHc5n8z-77" value="" style="endArrow=none;html=1;rounded=0;" edge="1" parent="1">
          <mxGeometry width="50" height="50" relative="1" as="geometry">
            <mxPoint x="290" y="2120" as="sourcePoint" />
            <mxPoint x="290" y="2030" as="targetPoint" />
          </mxGeometry>
        </mxCell>
        <mxCell id="WEp8lpsz-W-8RyHc5n8z-78" value="" style="endArrow=classic;html=1;rounded=0;entryX=0;entryY=0.5;entryDx=0;entryDy=0;" edge="1" parent="1">
          <mxGeometry width="50" height="50" relative="1" as="geometry">
            <mxPoint x="290" y="2030" as="sourcePoint" />
            <mxPoint x="330" y="2030" as="targetPoint" />
          </mxGeometry>
        </mxCell>
        <mxCell id="WEp8lpsz-W-8RyHc5n8z-79" value="" style="endArrow=none;html=1;rounded=0;entryX=1;entryY=0.5;entryDx=0;entryDy=0;" edge="1" parent="1" target="WEp8lpsz-W-8RyHc5n8z-60">
          <mxGeometry width="50" height="50" relative="1" as="geometry">
            <mxPoint x="480" y="1670" as="sourcePoint" />
            <mxPoint x="510" y="1760" as="targetPoint" />
          </mxGeometry>
        </mxCell>
        <mxCell id="WEp8lpsz-W-8RyHc5n8z-80" value="" style="endArrow=none;html=1;rounded=0;" edge="1" parent="1">
          <mxGeometry width="50" height="50" relative="1" as="geometry">
            <mxPoint x="480" y="1800" as="sourcePoint" />
            <mxPoint x="480" y="1670" as="targetPoint" />
          </mxGeometry>
        </mxCell>
        <mxCell id="WEp8lpsz-W-8RyHc5n8z-81" value="" style="endArrow=none;html=1;rounded=0;" edge="1" parent="1">
          <mxGeometry width="50" height="50" relative="1" as="geometry">
            <mxPoint x="480" y="1800" as="sourcePoint" />
            <mxPoint x="390" y="1800" as="targetPoint" />
          </mxGeometry>
        </mxCell>
        <mxCell id="WEp8lpsz-W-8RyHc5n8z-82" value="" style="endArrow=classic;html=1;rounded=0;entryX=0.5;entryY=0;entryDx=0;entryDy=0;" edge="1" parent="1" target="WEp8lpsz-W-8RyHc5n8z-62">
          <mxGeometry width="50" height="50" relative="1" as="geometry">
            <mxPoint x="390" y="1800" as="sourcePoint" />
            <mxPoint x="510" y="1760" as="targetPoint" />
          </mxGeometry>
        </mxCell>
        <mxCell id="WEp8lpsz-W-8RyHc5n8z-83" value="" style="endArrow=classic;html=1;rounded=0;entryX=0.5;entryY=0;entryDx=0;entryDy=0;exitX=0.5;exitY=1;exitDx=0;exitDy=0;" edge="1" parent="1">
          <mxGeometry width="50" height="50" relative="1" as="geometry">
            <mxPoint x="390" y="1890" as="sourcePoint" />
            <mxPoint x="390" y="1910" as="targetPoint" />
          </mxGeometry>
        </mxCell>
        <mxCell id="WEp8lpsz-W-8RyHc5n8z-84" value="" style="endArrow=none;html=1;rounded=0;entryX=1;entryY=0.5;entryDx=0;entryDy=0;" edge="1" parent="1">
          <mxGeometry width="50" height="50" relative="1" as="geometry">
            <mxPoint x="480" y="1850" as="sourcePoint" />
            <mxPoint x="450" y="1850" as="targetPoint" />
          </mxGeometry>
        </mxCell>
        <mxCell id="WEp8lpsz-W-8RyHc5n8z-85" value="" style="endArrow=none;html=1;rounded=0;" edge="1" parent="1">
          <mxGeometry width="50" height="50" relative="1" as="geometry">
            <mxPoint x="480" y="1980" as="sourcePoint" />
            <mxPoint x="480" y="1850" as="targetPoint" />
          </mxGeometry>
        </mxCell>
        <mxCell id="WEp8lpsz-W-8RyHc5n8z-86" value="" style="endArrow=none;html=1;rounded=0;" edge="1" parent="1">
          <mxGeometry width="50" height="50" relative="1" as="geometry">
            <mxPoint x="480" y="1980" as="sourcePoint" />
            <mxPoint x="390" y="1980" as="targetPoint" />
          </mxGeometry>
        </mxCell>
        <mxCell id="WEp8lpsz-W-8RyHc5n8z-87" value="" style="endArrow=classic;html=1;rounded=0;entryX=0.5;entryY=0;entryDx=0;entryDy=0;" edge="1" parent="1">
          <mxGeometry width="50" height="50" relative="1" as="geometry">
            <mxPoint x="390" y="1980" as="sourcePoint" />
            <mxPoint x="390" y="1990" as="targetPoint" />
          </mxGeometry>
        </mxCell>
        <mxCell id="WEp8lpsz-W-8RyHc5n8z-88" value="" style="endArrow=classic;html=1;rounded=0;entryX=0.5;entryY=0;entryDx=0;entryDy=0;exitX=0.5;exitY=1;exitDx=0;exitDy=0;" edge="1" parent="1">
          <mxGeometry width="50" height="50" relative="1" as="geometry">
            <mxPoint x="390" y="2070" as="sourcePoint" />
            <mxPoint x="390" y="2090" as="targetPoint" />
          </mxGeometry>
        </mxCell>
        <mxCell id="WEp8lpsz-W-8RyHc5n8z-89" value="" style="endArrow=none;html=1;rounded=0;entryX=1;entryY=0.5;entryDx=0;entryDy=0;" edge="1" parent="1">
          <mxGeometry width="50" height="50" relative="1" as="geometry">
            <mxPoint x="480" y="2030" as="sourcePoint" />
            <mxPoint x="450" y="2030" as="targetPoint" />
          </mxGeometry>
        </mxCell>
        <mxCell id="WEp8lpsz-W-8RyHc5n8z-90" value="" style="endArrow=none;html=1;rounded=0;" edge="1" parent="1">
          <mxGeometry width="50" height="50" relative="1" as="geometry">
            <mxPoint x="480" y="2160" as="sourcePoint" />
            <mxPoint x="480" y="2030" as="targetPoint" />
          </mxGeometry>
        </mxCell>
        <mxCell id="WEp8lpsz-W-8RyHc5n8z-91" value="" style="endArrow=none;html=1;rounded=0;" edge="1" parent="1">
          <mxGeometry width="50" height="50" relative="1" as="geometry">
            <mxPoint x="480" y="2160" as="sourcePoint" />
            <mxPoint x="390" y="2160" as="targetPoint" />
          </mxGeometry>
        </mxCell>
        <mxCell id="WEp8lpsz-W-8RyHc5n8z-92" value="" style="endArrow=classic;html=1;rounded=0;entryX=0.5;entryY=0;entryDx=0;entryDy=0;" edge="1" parent="1">
          <mxGeometry width="50" height="50" relative="1" as="geometry">
            <mxPoint x="390" y="2160" as="sourcePoint" />
            <mxPoint x="390" y="2170" as="targetPoint" />
          </mxGeometry>
        </mxCell>
        <mxCell id="WEp8lpsz-W-8RyHc5n8z-97" value="" style="edgeStyle=orthogonalEdgeStyle;rounded=0;orthogonalLoop=1;jettySize=auto;html=1;" edge="1" parent="1" source="WEp8lpsz-W-8RyHc5n8z-93" target="WEp8lpsz-W-8RyHc5n8z-94">
          <mxGeometry relative="1" as="geometry" />
        </mxCell>
        <mxCell id="WEp8lpsz-W-8RyHc5n8z-93" value="Output N_new" style="shape=parallelogram;perimeter=parallelogramPerimeter;whiteSpace=wrap;html=1;fixedSize=1;" vertex="1" parent="1">
          <mxGeometry x="330" y="2170" width="120" height="60" as="geometry" />
        </mxCell>
        <mxCell id="WEp8lpsz-W-8RyHc5n8z-98" value="" style="edgeStyle=orthogonalEdgeStyle;rounded=0;orthogonalLoop=1;jettySize=auto;html=1;" edge="1" parent="1" source="WEp8lpsz-W-8RyHc5n8z-94" target="WEp8lpsz-W-8RyHc5n8z-96">
          <mxGeometry relative="1" as="geometry" />
        </mxCell>
        <mxCell id="WEp8lpsz-W-8RyHc5n8z-94" value="for(int i=0; i&amp;lt;N_new; i++)" style="shape=hexagon;perimeter=hexagonPerimeter2;whiteSpace=wrap;html=1;fixedSize=1;" vertex="1" parent="1">
          <mxGeometry x="330" y="2250" width="120" height="80" as="geometry" />
        </mxCell>
        <mxCell id="WEp8lpsz-W-8RyHc5n8z-96" value="Output a_new[i]" style="shape=parallelogram;perimeter=parallelogramPerimeter;whiteSpace=wrap;html=1;fixedSize=1;" vertex="1" parent="1">
          <mxGeometry x="330" y="2350" width="120" height="60" as="geometry" />
        </mxCell>
        <mxCell id="WEp8lpsz-W-8RyHc5n8z-99" value="" style="endArrow=none;html=1;rounded=0;exitX=0;exitY=0.5;exitDx=0;exitDy=0;" edge="1" parent="1" source="WEp8lpsz-W-8RyHc5n8z-96">
          <mxGeometry width="50" height="50" relative="1" as="geometry">
            <mxPoint x="460" y="2260" as="sourcePoint" />
            <mxPoint x="290" y="2380" as="targetPoint" />
          </mxGeometry>
        </mxCell>
        <mxCell id="WEp8lpsz-W-8RyHc5n8z-100" value="" style="endArrow=none;html=1;rounded=0;" edge="1" parent="1">
          <mxGeometry width="50" height="50" relative="1" as="geometry">
            <mxPoint x="290" y="2380" as="sourcePoint" />
            <mxPoint x="290" y="2290" as="targetPoint" />
          </mxGeometry>
        </mxCell>
        <mxCell id="WEp8lpsz-W-8RyHc5n8z-101" value="" style="endArrow=classic;html=1;rounded=0;entryX=0;entryY=0.5;entryDx=0;entryDy=0;" edge="1" parent="1" target="WEp8lpsz-W-8RyHc5n8z-94">
          <mxGeometry width="50" height="50" relative="1" as="geometry">
            <mxPoint x="290" y="2290" as="sourcePoint" />
            <mxPoint x="510" y="2210" as="targetPoint" />
          </mxGeometry>
        </mxCell>
        <mxCell id="WEp8lpsz-W-8RyHc5n8z-102" value="" style="endArrow=none;html=1;rounded=0;exitX=1;exitY=0.5;exitDx=0;exitDy=0;" edge="1" parent="1" source="WEp8lpsz-W-8RyHc5n8z-94">
          <mxGeometry width="50" height="50" relative="1" as="geometry">
            <mxPoint x="460" y="2260" as="sourcePoint" />
            <mxPoint x="480" y="2290" as="targetPoint" />
          </mxGeometry>
        </mxCell>
        <mxCell id="WEp8lpsz-W-8RyHc5n8z-103" value="" style="endArrow=none;html=1;rounded=0;" edge="1" parent="1">
          <mxGeometry width="50" height="50" relative="1" as="geometry">
            <mxPoint x="480" y="2440" as="sourcePoint" />
            <mxPoint x="480" y="2290" as="targetPoint" />
          </mxGeometry>
        </mxCell>
        <mxCell id="WEp8lpsz-W-8RyHc5n8z-104" value="End" style="ellipse;whiteSpace=wrap;html=1;" vertex="1" parent="1">
          <mxGeometry x="330" y="2420" width="120" height="40" as="geometry" />
        </mxCell>
        <mxCell id="WEp8lpsz-W-8RyHc5n8z-105" value="" style="endArrow=classic;html=1;rounded=0;entryX=1;entryY=0.5;entryDx=0;entryDy=0;" edge="1" parent="1" target="WEp8lpsz-W-8RyHc5n8z-104">
          <mxGeometry width="50" height="50" relative="1" as="geometry">
            <mxPoint x="480" y="2440" as="sourcePoint" />
            <mxPoint x="510" y="2210" as="targetPoint" />
          </mxGeometry>
        </mxCell>
        <mxCell id="WEp8lpsz-W-8RyHc5n8z-106" value="True" style="text;html=1;strokeColor=none;fillColor=none;align=center;verticalAlign=middle;whiteSpace=wrap;rounded=0;" vertex="1" parent="1">
          <mxGeometry x="430" y="200" width="60" height="30" as="geometry" />
        </mxCell>
        <mxCell id="WEp8lpsz-W-8RyHc5n8z-107" value="True" style="text;html=1;strokeColor=none;fillColor=none;align=center;verticalAlign=middle;whiteSpace=wrap;rounded=0;" vertex="1" parent="1">
          <mxGeometry x="384" y="480" width="60" height="30" as="geometry" />
        </mxCell>
        <mxCell id="WEp8lpsz-W-8RyHc5n8z-108" value="True" style="text;html=1;strokeColor=none;fillColor=none;align=center;verticalAlign=middle;whiteSpace=wrap;rounded=0;" vertex="1" parent="1">
          <mxGeometry x="384" y="680" width="60" height="30" as="geometry" />
        </mxCell>
        <mxCell id="WEp8lpsz-W-8RyHc5n8z-109" value="True" style="text;html=1;strokeColor=none;fillColor=none;align=center;verticalAlign=middle;whiteSpace=wrap;rounded=0;" vertex="1" parent="1">
          <mxGeometry x="400" y="950" width="60" height="30" as="geometry" />
        </mxCell>
        <mxCell id="WEp8lpsz-W-8RyHc5n8z-110" value="True" style="text;html=1;strokeColor=none;fillColor=none;align=center;verticalAlign=middle;whiteSpace=wrap;rounded=0;" vertex="1" parent="1">
          <mxGeometry x="390" y="1140" width="60" height="30" as="geometry" />
        </mxCell>
        <mxCell id="WEp8lpsz-W-8RyHc5n8z-111" value="True" style="text;html=1;strokeColor=none;fillColor=none;align=center;verticalAlign=middle;whiteSpace=wrap;rounded=0;" vertex="1" parent="1">
          <mxGeometry x="390" y="1249" width="60" height="30" as="geometry" />
        </mxCell>
        <mxCell id="WEp8lpsz-W-8RyHc5n8z-112" value="True" style="text;html=1;strokeColor=none;fillColor=none;align=center;verticalAlign=middle;whiteSpace=wrap;rounded=0;" vertex="1" parent="1">
          <mxGeometry x="390" y="1340" width="60" height="30" as="geometry" />
        </mxCell>
        <mxCell id="WEp8lpsz-W-8RyHc5n8z-113" value="" style="endArrow=none;html=1;rounded=0;" edge="1" parent="1">
          <mxGeometry width="50" height="50" relative="1" as="geometry">
            <mxPoint x="480" y="1210" as="sourcePoint" />
            <mxPoint x="480" y="1400" as="targetPoint" />
          </mxGeometry>
        </mxCell>
        <mxCell id="WEp8lpsz-W-8RyHc5n8z-114" value="" style="endArrow=classic;html=1;rounded=0;entryX=1;entryY=0.5;entryDx=0;entryDy=0;" edge="1" parent="1" target="WEp8lpsz-W-8RyHc5n8z-42">
          <mxGeometry width="50" height="50" relative="1" as="geometry">
            <mxPoint x="480" y="1210" as="sourcePoint" />
            <mxPoint x="550" y="1130" as="targetPoint" />
          </mxGeometry>
        </mxCell>
        <mxCell id="WEp8lpsz-W-8RyHc5n8z-115" value="" style="endArrow=none;html=1;rounded=0;entryX=0;entryY=0.5;entryDx=0;entryDy=0;" edge="1" parent="1" target="WEp8lpsz-W-8RyHc5n8z-57">
          <mxGeometry width="50" height="50" relative="1" as="geometry">
            <mxPoint x="270" y="1490" as="sourcePoint" />
            <mxPoint x="550" y="1730" as="targetPoint" />
          </mxGeometry>
        </mxCell>
        <mxCell id="WEp8lpsz-W-8RyHc5n8z-116" value="" style="endArrow=none;html=1;rounded=0;" edge="1" parent="1">
          <mxGeometry width="50" height="50" relative="1" as="geometry">
            <mxPoint x="270" y="2200" as="sourcePoint" />
            <mxPoint x="270" y="1490" as="targetPoint" />
          </mxGeometry>
        </mxCell>
        <mxCell id="WEp8lpsz-W-8RyHc5n8z-117" value="" style="endArrow=classic;html=1;rounded=0;entryX=0;entryY=0.5;entryDx=0;entryDy=0;" edge="1" parent="1" target="WEp8lpsz-W-8RyHc5n8z-93">
          <mxGeometry width="50" height="50" relative="1" as="geometry">
            <mxPoint x="270" y="2200" as="sourcePoint" />
            <mxPoint x="550" y="1940" as="targetPoint" />
          </mxGeometry>
        </mxCell>
        <mxCell id="WEp8lpsz-W-8RyHc5n8z-118" value="True" style="text;html=1;strokeColor=none;fillColor=none;align=center;verticalAlign=middle;whiteSpace=wrap;rounded=0;" vertex="1" parent="1">
          <mxGeometry x="390" y="1520" width="60" height="30" as="geometry" />
        </mxCell>
        <mxCell id="WEp8lpsz-W-8RyHc5n8z-119" value="True" style="text;html=1;strokeColor=none;fillColor=none;align=center;verticalAlign=middle;whiteSpace=wrap;rounded=0;" vertex="1" parent="1">
          <mxGeometry x="384" y="1700" width="60" height="30" as="geometry" />
        </mxCell>
        <mxCell id="WEp8lpsz-W-8RyHc5n8z-120" value="True" style="text;html=1;strokeColor=none;fillColor=none;align=center;verticalAlign=middle;whiteSpace=wrap;rounded=0;" vertex="1" parent="1">
          <mxGeometry x="384" y="1880" width="60" height="30" as="geometry" />
        </mxCell>
        <mxCell id="WEp8lpsz-W-8RyHc5n8z-121" value="True" style="text;html=1;strokeColor=none;fillColor=none;align=center;verticalAlign=middle;whiteSpace=wrap;rounded=0;" vertex="1" parent="1">
          <mxGeometry x="384" y="2060" width="60" height="30" as="geometry" />
        </mxCell>
        <mxCell id="WEp8lpsz-W-8RyHc5n8z-122" value="True" style="text;html=1;strokeColor=none;fillColor=none;align=center;verticalAlign=middle;whiteSpace=wrap;rounded=0;" vertex="1" parent="1">
          <mxGeometry x="384" y="2320" width="60" height="30" as="geometry" />
        </mxCell>
        <mxCell id="WEp8lpsz-W-8RyHc5n8z-123" value="False" style="text;html=1;strokeColor=none;fillColor=none;align=center;verticalAlign=middle;whiteSpace=wrap;rounded=0;" vertex="1" parent="1">
          <mxGeometry x="390" y="280" width="60" height="30" as="geometry" />
        </mxCell>
        <mxCell id="WEp8lpsz-W-8RyHc5n8z-124" value="False" style="text;html=1;strokeColor=none;fillColor=none;align=center;verticalAlign=middle;whiteSpace=wrap;rounded=0;" vertex="1" parent="1">
          <mxGeometry x="440" y="410" width="60" height="30" as="geometry" />
        </mxCell>
        <mxCell id="WEp8lpsz-W-8RyHc5n8z-125" value="False" style="text;html=1;strokeColor=none;fillColor=none;align=center;verticalAlign=middle;whiteSpace=wrap;rounded=0;" vertex="1" parent="1">
          <mxGeometry x="300" y="710" width="60" height="30" as="geometry" />
        </mxCell>
        <mxCell id="WEp8lpsz-W-8RyHc5n8z-126" value="False" style="text;html=1;strokeColor=none;fillColor=none;align=center;verticalAlign=middle;whiteSpace=wrap;rounded=0;" vertex="1" parent="1">
          <mxGeometry x="440" y="610" width="60" height="30" as="geometry" />
        </mxCell>
        <mxCell id="WEp8lpsz-W-8RyHc5n8z-127" value="True" style="text;html=1;strokeColor=none;fillColor=none;align=center;verticalAlign=middle;whiteSpace=wrap;rounded=0;" vertex="1" parent="1">
          <mxGeometry x="384" y="770" width="60" height="30" as="geometry" />
        </mxCell>
        <mxCell id="WEp8lpsz-W-8RyHc5n8z-128" value="False" style="text;html=1;strokeColor=none;fillColor=none;align=center;verticalAlign=middle;whiteSpace=wrap;rounded=0;" vertex="1" parent="1">
          <mxGeometry x="300" y="890" width="60" height="30" as="geometry" />
        </mxCell>
        <mxCell id="WEp8lpsz-W-8RyHc5n8z-129" value="False" style="text;html=1;strokeColor=none;fillColor=none;align=center;verticalAlign=middle;whiteSpace=wrap;rounded=0;" vertex="1" parent="1">
          <mxGeometry x="440" y="1080" width="60" height="30" as="geometry" />
        </mxCell>
        <mxCell id="WEp8lpsz-W-8RyHc5n8z-130" value="False" style="text;html=1;strokeColor=none;fillColor=none;align=center;verticalAlign=middle;whiteSpace=wrap;rounded=0;" vertex="1" parent="1">
          <mxGeometry x="280" y="1180" width="60" height="30" as="geometry" />
        </mxCell>
        <mxCell id="WEp8lpsz-W-8RyHc5n8z-131" value="False" style="text;html=1;strokeColor=none;fillColor=none;align=center;verticalAlign=middle;whiteSpace=wrap;rounded=0;" vertex="1" parent="1">
          <mxGeometry x="420" y="1279" width="60" height="30" as="geometry" />
        </mxCell>
        <mxCell id="WEp8lpsz-W-8RyHc5n8z-132" value="False" style="text;html=1;strokeColor=none;fillColor=none;align=center;verticalAlign=middle;whiteSpace=wrap;rounded=0;" vertex="1" parent="1">
          <mxGeometry x="300" y="1460" width="60" height="30" as="geometry" />
        </mxCell>
        <mxCell id="WEp8lpsz-W-8RyHc5n8z-133" value="False" style="text;html=1;strokeColor=none;fillColor=none;align=center;verticalAlign=middle;whiteSpace=wrap;rounded=0;" vertex="1" parent="1">
          <mxGeometry x="440" y="1640" width="60" height="30" as="geometry" />
        </mxCell>
        <mxCell id="WEp8lpsz-W-8RyHc5n8z-134" value="False" style="text;html=1;strokeColor=none;fillColor=none;align=center;verticalAlign=middle;whiteSpace=wrap;rounded=0;" vertex="1" parent="1">
          <mxGeometry x="440" y="1820" width="60" height="30" as="geometry" />
        </mxCell>
        <mxCell id="WEp8lpsz-W-8RyHc5n8z-135" value="False" style="text;html=1;strokeColor=none;fillColor=none;align=center;verticalAlign=middle;whiteSpace=wrap;rounded=0;" vertex="1" parent="1">
          <mxGeometry x="440" y="2000" width="60" height="30" as="geometry" />
        </mxCell>
        <mxCell id="WEp8lpsz-W-8RyHc5n8z-136" value="False" style="text;html=1;strokeColor=none;fillColor=none;align=center;verticalAlign=middle;whiteSpace=wrap;rounded=0;" vertex="1" parent="1">
          <mxGeometry x="440" y="2260" width="60" height="30" as="geometry" />
        </mxCell>
      </root>
    </mxGraphModel>
  </diagram>
</mxfile>
